<?xml version="1.0" encoding="utf-8"?>
<!-- Generator: Adobe Illustrator 19.0.0, SVG Export Plug-In . SVG Version: 6.00 Build 0)  -->
<svg version="1.1" id="Layer_1" xmlns="http://www.w3.org/2000/svg" xmlns:xlink="http://www.w3.org/1999/xlink" x="0px" y="0px"
	 viewBox="0 0 553 256" style="enable-background:new 0 0 553 256;" xml:space="preserve">
<style type="text/css">
	.st0{enable-background:new    ;}
	.st1{fill:#3E454C;}
</style>
<g id="XMLID_15_" class="st0">
	<path id="XMLID_16_" class="st1" d="M155.55,35.346v31.002h-50.812v130.531H66.812V66.348H16V35.346H155.55z"/>
	<path id="XMLID_18_" class="st1" d="M269.817,135.343c0,9.636-1.459,18.453-4.376,26.456c-2.918,8.005-7.134,14.841-12.642,20.512
		c-5.512,5.674-12.118,10.062-19.814,13.17c-7.7,3.107-16.331,4.661-25.892,4.661c-9.402,0-17.953-1.554-25.649-4.661
		c-7.7-3.107-14.306-7.495-19.814-13.17c-5.512-5.67-9.808-12.507-12.885-20.512c-3.081-8.002-4.619-16.819-4.619-26.456
		c0-9.634,1.58-18.415,4.741-26.34c3.161-7.925,7.537-14.685,13.129-20.278c5.592-5.595,12.236-9.944,19.935-13.053
		c7.696-3.107,16.084-4.663,25.163-4.663c9.238,0,17.706,1.555,25.405,4.663c7.696,3.11,14.303,7.459,19.815,13.053
		c5.508,5.593,9.804,12.353,12.885,20.278C268.274,116.928,269.817,125.709,269.817,135.343z M232.862,135.343
		c0-10.722-2.23-19.151-6.685-25.29c-4.46-6.137-10.819-9.208-19.085-9.208c-8.266,0-14.671,3.07-19.207,9.208
		c-4.539,6.14-6.807,14.568-6.807,25.29c0,10.721,2.268,19.23,6.807,25.524c4.535,6.293,10.94,9.44,19.207,9.44
		c8.266,0,14.625-3.148,19.085-9.44C230.633,154.572,232.862,146.064,232.862,135.343z"/>
	<path id="XMLID_21_" class="st1" d="M407.664,135.575c0,9.479-1.215,18.104-3.647,25.873c-2.431,7.772-5.998,14.452-10.697,20.047
		c-4.702,5.595-10.538,9.946-17.505,13.053c-6.971,3.106-14.993,4.661-24.068,4.661c-5.027,0-9.725-0.465-14.102-1.399
		c-4.376-0.932-8.593-2.251-12.642-3.962V240h-36.225V78.468c3.24-0.932,6.967-1.824,11.183-2.68
		c4.213-0.852,8.631-1.592,13.25-2.214c4.619-0.62,9.318-1.125,14.101-1.515c4.779-0.387,9.36-0.583,13.736-0.583
		c10.534,0,19.936,1.515,28.202,4.545c8.265,3.03,15.232,7.306,20.908,12.821c5.672,5.517,10.006,12.236,13.007,20.162
		C406.164,116.928,407.664,125.785,407.664,135.575z M370.709,136.507c0-10.723-2.514-19.306-7.535-25.756
		c-5.027-6.447-12.483-9.674-22.367-9.674c-3.244,0-6.242,0.118-8.996,0.35c-2.758,0.233-5.025,0.506-6.807,0.816v62.701
		c2.268,1.399,5.227,2.565,8.874,3.497c3.646,0.932,7.331,1.399,11.062,1.399C362.117,169.84,370.709,158.731,370.709,136.507z"/>
	<path id="XMLID_24_" class="st1" d="M426.624,196.878V21.593L462.848,16v58.738c2.432-0.775,5.55-1.515,9.361-2.214
		c3.805-0.699,7.495-1.048,11.061-1.048c10.371,0,19.002,1.362,25.892,4.078c6.888,2.721,12.4,6.567,16.532,11.538
		c4.132,4.975,7.05,10.879,8.753,17.716c1.701,6.839,2.552,14.451,2.552,22.842v69.228h-36.225v-65.032
		c0-11.189-1.5-19.114-4.498-23.775c-3.001-4.661-8.551-6.993-16.654-6.993c-3.243,0-6.282,0.273-9.117,0.817
		c-2.837,0.546-5.389,1.128-7.658,1.748v93.236H426.624z"/>
</g>
</svg>
